<svg width="21" height="22" viewBox="0 0 21 22" aria-hidden="true">
									<path d="M15.8868 0.93457H4.77569C4.16771 0.93457 3.5657 1.05432 3.004 1.28698C2.44231 1.51964 1.93194 1.86066 1.50204 2.29056C0.63382 3.15878 0.146057 4.33635 0.146057 5.5642V16.6753C0.146057 17.2833 0.265806 17.8853 0.498467 18.447C0.731127 19.0087 1.07214 19.5191 1.50204 19.949C2.37027 20.8172 3.54783 21.3049 4.77569 21.3049H15.8868C16.4948 21.3049 17.0968 21.1852 17.6585 20.9525C18.2202 20.7199 18.7305 20.3789 19.1604 19.949C19.5903 19.5191 19.9314 19.0087 20.164 18.447C20.3967 17.8853 20.5164 17.2833 20.5164 16.6753V5.5642C20.5164 4.95623 20.3967 4.35421 20.164 3.79252C19.9314 3.23082 19.5903 2.72046 19.1604 2.29056C18.7305 1.86066 18.2202 1.51964 17.6585 1.28698C17.0968 1.05432 16.4948 0.93457 15.8868 0.93457ZM3.84976 5.5642C3.66663 5.5642 3.48761 5.50989 3.33534 5.40815C3.18308 5.30641 3.0644 5.1618 2.99432 4.99261C2.92424 4.82342 2.9059 4.63725 2.94163 4.45763C2.97735 4.27802 3.06554 4.11304 3.19503 3.98355C3.32453 3.85405 3.48951 3.76587 3.66912 3.73014C3.84873 3.69441 4.03491 3.71275 4.2041 3.78283C4.37329 3.85291 4.5179 3.97159 4.61964 4.12386C4.72138 4.27612 4.77569 4.45514 4.77569 4.63827C4.77569 4.88384 4.67813 5.11936 4.50449 5.293C4.33084 5.46665 4.09533 5.5642 3.84976 5.5642ZM10.3312 16.6753C9.23246 16.6753 8.15835 16.3495 7.24474 15.739C6.33113 15.1286 5.61906 14.2609 5.19858 13.2458C4.77809 12.2306 4.66807 11.1136 4.88243 10.0359C5.0968 8.95825 5.62591 7.96834 6.40287 7.19138C7.17983 6.41443 8.16973 5.88531 9.24741 5.67095C10.3251 5.45659 11.4421 5.5666 12.4573 5.98709C13.4724 6.40758 14.3401 7.11965 14.9505 8.03325C15.561 8.94686 15.8868 10.021 15.8868 11.1198C15.8868 12.5932 15.3015 14.0063 14.2596 15.0481C13.2177 16.09 11.8047 16.6753 10.3312 16.6753Z" fill="white"></path>
								</svg>