<svg width="19" height="21" viewBox="0 0 19 21" aria-hidden="true">
									<path d="M8.08222 7.55785V10.9929C7.6496 10.8788 7.1969 10.8632 6.75748 10.9473C6.31806 11.0315 5.90312 11.2132 5.54325 11.479C5.18338 11.7448 4.88775 12.088 4.67816 12.4833C4.46856 12.8785 4.35034 13.3158 4.33222 13.7628C4.30744 14.1477 4.36535 14.5335 4.50208 14.8941C4.6388 15.2548 4.85115 15.582 5.12486 15.8537C5.39857 16.1254 5.72729 16.3354 6.08891 16.4695C6.45053 16.6036 6.83668 16.6587 7.22138 16.6312C7.60998 16.661 8.00042 16.6061 8.36572 16.4702C8.73102 16.3344 9.06247 16.1209 9.33719 15.8444C9.6119 15.568 9.82332 15.2352 9.95685 14.869C10.0904 14.5029 10.1428 14.1121 10.1105 13.7237V0.110352H13.508C14.0855 3.70618 15.8839 4.54035 18.2914 4.92535V8.37118C16.623 8.23436 15.0135 7.69072 13.6039 6.78785V13.5937C13.6039 16.677 11.7789 20.1103 7.24805 20.1103C6.39802 20.1066 5.55728 19.9333 4.77512 19.6004C3.99296 19.2676 3.28511 18.7819 2.69307 18.1719C2.10104 17.562 1.63672 16.84 1.32734 16.0482C1.01796 15.2565 0.869746 14.4109 0.891382 13.5612C0.918304 12.6765 1.13243 11.8075 1.51964 11.0116C1.90685 10.2157 2.45836 9.51092 3.1378 8.94368C3.81725 8.37644 4.6092 7.95964 5.46146 7.72077C6.31372 7.4819 7.20693 7.42637 8.08222 7.55785Z" fill="white"></path>
								</svg>